<svg width="1280" height="720" xmlns="http://www.w3.org/2000/svg" xmlns:xlink="http://www.w3.org/1999/xlink" overflow="hidden"><g><rect x="0" y="0" width="1280" height="720" fill="#FFFFFF"/><path d="M346.697 356.697C354.811 360.931 358.074 370.715 353.985 378.548 349.897 386.382 340.005 389.3 331.891 385.066 323.778 380.831 320.515 371.048 324.603 363.214 328.692 355.38 338.583 352.462 346.697 356.697Z" stroke="#BFBFBF" stroke-width="2" stroke-miterlimit="8" fill="#D9D9D9" fill-rule="evenodd"/><path d="M332.39 444.627C340.504 448.861 343.767 458.644 339.679 466.478 335.59 474.312 325.698 477.23 317.585 472.995 309.471 468.761 306.208 458.978 310.296 451.144 314.385 443.31 324.277 440.392 332.39 444.627Z" stroke="#BFBFBF" stroke-width="2" stroke-miterlimit="8" fill="#D9D9D9" fill-rule="evenodd"/><path d="M272.214 390.102C280.328 394.336 283.591 404.119 279.503 411.953 275.414 419.787 265.522 422.705 257.409 418.47 249.295 414.236 246.032 404.453 250.121 396.619 254.209 388.785 264.101 385.867 272.214 390.102Z" stroke="#BFBFBF" stroke-width="2" stroke-miterlimit="8" fill="#D9D9D9" fill-rule="evenodd"/><path d="M273.088 312.48C281.202 316.714 284.465 326.497 280.376 334.331 276.288 342.165 266.396 345.083 258.283 340.848 250.169 336.614 246.906 326.831 250.994 318.997 255.083 311.163 264.975 308.245 273.088 312.48Z" stroke="#BFBFBF" stroke-width="2" stroke-miterlimit="8" fill="#D9D9D9" fill-rule="evenodd"/><path d="M196.936 355.885C205.049 360.119 208.312 369.903 204.224 377.737 200.135 385.57 190.244 388.488 182.13 384.254 174.016 380.019 170.753 370.236 174.842 362.402 178.93 354.568 188.822 351.65 196.936 355.885Z" stroke="#BFBFBF" stroke-width="2" stroke-miterlimit="8" fill="#D9D9D9" fill-rule="evenodd"/><path d="M219.943 443.952C228.056 448.186 231.319 457.969 227.231 465.803 223.142 473.637 213.251 476.555 205.137 472.32 197.023 468.086 193.76 458.303 197.849 450.469 201.937 442.635 211.829 439.717 219.943 443.952Z" stroke="#BFBFBF" stroke-width="2" stroke-miterlimit="8" fill="#D9D9D9" fill-rule="evenodd"/><path d="M0 0 20.4959 45.4322" stroke="#000000" stroke-miterlimit="8" fill="none" fill-rule="evenodd" transform="matrix(0.462678 -0.886527 -0.886527 -0.462678 310.296 451.144)"/><path d="M309.365 463.419 228.163 453.528" stroke="#000000" stroke-miterlimit="8" fill="none" fill-rule="evenodd"/><path d="M250.063 331.272 196.936 355.885" stroke="#000000" stroke-miterlimit="8" fill="none" fill-rule="evenodd"/><path d="M0 0 5.14278 52.5715" stroke="#000000" stroke-miterlimit="8" fill="none" fill-rule="evenodd" transform="matrix(0.462678 -0.886527 -0.886527 -0.462678 324.603 363.214)"/><path d="M323.671 375.49 280.434 399.678" stroke="#000000" stroke-miterlimit="8" fill="none" fill-rule="evenodd"/><path d="M0 0 57.2577 16.2821" stroke="#000000" stroke-miterlimit="8" fill="none" fill-rule="evenodd" transform="matrix(-0.462678 0.886527 0.886527 0.462678 344.448 386.333)"/><path d="M0 0 67.0868 90.2787" stroke="#000000" stroke-miterlimit="8" fill="none" fill-rule="evenodd" transform="matrix(-0.462678 0.886527 0.886527 0.462678 270.839 342.115)"/><path d="M250.12 396.619 204.224 377.737" stroke="#000000" stroke-miterlimit="8" fill="none" fill-rule="evenodd"/><path d="M0 0 44.8012 37.7071" stroke="#000000" stroke-miterlimit="8" fill="none" fill-rule="evenodd" transform="matrix(0.462678 -0.886527 -0.886527 -0.462678 207.386 442.685)"/><path d="M257.409 418.47 219.943 443.951" stroke="#000000" stroke-miterlimit="8" fill="none" fill-rule="evenodd"/><path d="M0 0 109.143 13.7141" stroke="#000000" stroke-miterlimit="8" fill="none" fill-rule="evenodd" transform="matrix(-0.462678 0.886527 0.886527 0.462678 258.283 340.848)"/><path d="M571.379 355.882C579.493 360.117 582.756 369.9 578.668 377.734 574.579 385.568 564.687 388.486 556.574 384.251 548.46 380.017 545.197 370.233 549.286 362.4 553.374 354.566 563.266 351.648 571.379 355.882Z" stroke="#BFBFBF" stroke-width="2" stroke-miterlimit="8" fill="#D9D9D9" fill-rule="evenodd"/><path d="M557.073 443.812C565.186 448.047 568.449 457.83 564.361 465.664 560.272 473.498 550.381 476.416 542.267 472.181 534.153 467.947 530.89 458.163 534.979 450.329 539.067 442.496 548.959 439.578 557.073 443.812Z" stroke="#BFBFBF" stroke-width="2" stroke-miterlimit="8" fill="#D9D9D9" fill-rule="evenodd"/><path d="M496.897 389.287C505.01 393.522 508.273 403.305 504.185 411.139 500.096 418.973 490.205 421.891 482.091 417.656 473.977 413.422 470.714 403.638 474.803 395.804 478.891 387.971 488.783 385.053 496.897 389.287Z" stroke="#BFBFBF" stroke-width="2" stroke-miterlimit="8" fill="#D9D9D9" fill-rule="evenodd"/><path d="M497.771 311.665C505.884 315.9 509.147 325.683 505.059 333.517 500.97 341.351 491.079 344.268 482.965 340.034 474.851 335.799 471.588 326.016 475.677 318.182 479.765 310.348 489.657 307.431 497.771 311.665Z" stroke="#BFBFBF" stroke-width="2" stroke-miterlimit="8" fill="#D9D9D9" fill-rule="evenodd"/><path d="M421.618 355.071C429.732 359.305 432.995 369.088 428.906 376.922 424.818 384.756 414.926 387.674 406.812 383.439 398.699 379.205 395.436 369.422 399.524 361.588 403.613 353.754 413.504 350.836 421.618 355.071Z" stroke="#BFBFBF" stroke-width="2" stroke-miterlimit="8" fill="#D9D9D9" fill-rule="evenodd"/><path d="M444.625 443.137C452.739 447.372 456.002 457.155 451.913 464.989 447.825 472.823 437.933 475.74 429.819 471.506 421.706 467.271 418.443 457.488 422.531 449.654 426.62 441.82 436.511 438.903 444.625 443.137Z" stroke="#BFBFBF" stroke-width="2" stroke-miterlimit="8" fill="#D9D9D9" fill-rule="evenodd"/><path d="M0 0 20.4959 45.4322" stroke="#000000" stroke-miterlimit="8" fill="none" fill-rule="evenodd" transform="matrix(0.462678 -0.886527 -0.886527 -0.462678 534.979 450.329)"/><path d="M0 0 5.14278 52.5715" stroke="#000000" stroke-miterlimit="8" fill="none" fill-rule="evenodd" transform="matrix(0.462678 -0.886527 -0.886527 -0.462678 549.286 362.4)"/><path d="M548.354 374.675 505.117 398.863" stroke="#000000" stroke-miterlimit="8" fill="none" fill-rule="evenodd"/><path d="M0 0 57.2577 16.2821" stroke="#000000" stroke-miterlimit="8" fill="none" fill-rule="evenodd" transform="matrix(-0.462678 0.886527 0.886527 0.462678 569.13 385.518)"/><path d="M474.803 395.804 428.906 376.922" stroke="#000000" stroke-miterlimit="8" fill="none" fill-rule="evenodd"/><path d="M0 0 44.8012 37.7071" stroke="#000000" stroke-miterlimit="8" fill="none" fill-rule="evenodd" transform="matrix(0.462678 -0.886527 -0.886527 -0.462678 432.069 441.87)"/><path d="M0 0 109.143 13.7141" stroke="#000000" stroke-miterlimit="8" fill="none" fill-rule="evenodd" transform="matrix(-0.462678 0.886527 0.886527 0.462678 482.965 340.034)"/><path d="M387 215.667C387 211.985 389.985 209 393.667 209L586.333 209C590.015 209 593 211.985 593 215.667L593 242.333C593 246.015 590.015 249 586.333 249L393.667 249C389.985 249 387 246.015 387 242.333Z" stroke="#042433" stroke-width="2" stroke-miterlimit="8" fill="none" fill-rule="evenodd"/><text font-family="Aptos,Aptos_MSFontService,sans-serif" font-style="italic" font-weight="400" font-size="24" transform="translate(418.263 236)">WikidataLinks</text><path d="M162 214.834C162 211.059 165.059 208 168.834 208L361.166 208C364.94 208 368 211.059 368 214.834L368 242.166C368 245.941 364.94 249 361.166 249L168.834 249C165.059 249 162 245.941 162 242.166Z" stroke="#042433" stroke-width="2" stroke-miterlimit="8" fill="none" fill-rule="evenodd"/><text font-family="Aptos,Aptos_MSFontService,sans-serif" font-style="italic" font-weight="400" font-size="24" transform="translate(212.99 236)">PageLinks</text><path d="M163 115C163 109.477 167.477 105 173 105L583 105C588.523 105 593 109.477 593 115L593 155C593 160.523 588.523 165 583 165L173 165C167.477 165 163 160.523 163 155Z" stroke="#BFBFBF" stroke-width="2" stroke-miterlimit="8" fill="#F2F2F2" fill-rule="evenodd"/><text font-family="Aptos,Aptos_MSFontService,sans-serif" font-style="italic" font-weight="400" font-size="24" transform="translate(288.038 142)">DBPedia</text><text font-family="Aptos,Aptos_MSFontService,sans-serif" font-style="italic" font-weight="400" font-size="24" transform="translate(381.805 142)">Entity v2</text><path d="M480 185.552 488.552 185.552 488.552 177 492.448 177 492.448 185.552 501 185.552 501 189.448 492.448 189.448 492.448 198 488.552 198 488.552 189.448 480 189.448Z" stroke="#000000" stroke-width="2" stroke-miterlimit="8" fill-rule="evenodd"/><path d="M478 283.5 484.25 283.5 484.25 263 496.75 263 496.75 283.5 503 283.5 490.5 296Z" stroke="#000000" stroke-width="2" stroke-miterlimit="8" fill-rule="evenodd"/><path d="M255 184.552 263.552 184.552 263.552 176 267.448 176 267.448 184.552 276 184.552 276 188.448 267.448 188.448 267.448 197 263.552 197 263.552 188.448 255 188.448Z" stroke="#000000" stroke-width="2" stroke-miterlimit="8" fill-rule="evenodd"/><path d="M252 282 258.5 282 258.5 262 271.5 262 271.5 282 278 282 265 295Z" stroke="#000000" stroke-width="2" stroke-miterlimit="8" fill-rule="evenodd"/><text font-family="Aptos,Aptos_MSFontService,sans-serif" font-weight="700" font-size="24" transform="translate(467.678 447)">KG2</text><text font-family="Aptos,Aptos_MSFontService,sans-serif" font-weight="700" font-size="24" transform="translate(243.532 447)">KG1</text></g></svg>